<svg width="348" height="106" viewBox="0 0 348 106" fill="none" xmlns="http://www.w3.org/2000/svg">
<g filter="url(#filter0_i_28_12)">
<path d="M38.7751 28.2542L58 17.5M52.9733 36.9883L63.405 30.7025" stroke="#A7BFDC" stroke-width="6" stroke-linecap="round"/>
<path d="M16.9726 75.7107C15.0508 74.6213 12.6097 75.296 11.5202 77.2178C10.4308 79.1396 11.1055 81.5808 13.0274 82.6702L16.9726 75.7107ZM52.0684 100.204L50.0957 103.684L50.0957 103.684L52.0684 100.204ZM61.9316 100.204L63.9043 103.684L63.9043 103.684L61.9316 100.204ZM100.973 82.6702C102.894 81.5808 103.569 79.1396 102.48 77.2178C101.39 75.296 98.9492 74.6213 97.0274 75.7107L100.973 82.6702ZM52.3233 5.47446L54.194 9.01007L54.194 9.01007L52.3233 5.47446ZM61.6767 5.47446L59.806 9.01007L59.806 9.01007L61.6767 5.47446ZM13.0274 82.6702L50.0957 103.684L54.041 96.7245L16.9726 75.7107L13.0274 82.6702ZM63.9043 103.684L100.973 82.6702L97.0274 75.7107L59.959 96.7245L63.9043 103.684ZM13.8707 30.3451L54.194 9.01007L50.4526 1.93885L10.1293 23.2739L13.8707 30.3451ZM59.806 9.01007L100.129 30.3451L103.871 23.2739L63.5474 1.93885L59.806 9.01007ZM54.194 9.01007C55.9494 8.08128 58.0506 8.08128 59.806 9.01007L63.5474 1.93885C59.4515 -0.228315 54.5485 -0.228317 50.4526 1.93885L54.194 9.01007ZM50.0957 103.684C54.3784 106.112 59.6216 106.112 63.9043 103.684L59.959 96.7245C58.1235 97.765 55.8765 97.765 54.041 96.7245L50.0957 103.684ZM53 51V103.381H61V51H53Z" fill="#A7BFDC"/>
</g>
<path d="M17.5 76.7V35.5L52.4941 53.2185C55.3276 54.6532 58.6741 54.6566 61.5105 53.2277L96.7 35.5V76.7" stroke="#0E74EC" stroke-width="15" stroke-linecap="round"/>
<g filter="url(#filter1_f_28_12)">
<path d="M17.5 76.7V35.5L52.4941 53.2185C55.3276 54.6532 58.6741 54.6566 61.5105 53.2277L96.7 35.5V76.7" stroke="#0E74EC" stroke-width="15" stroke-linecap="round"/>
</g>
<path d="M121.42 49.959V77H116.418V49.959H121.42ZM116.164 39.5488H121.674V44.7539H116.164V39.5488ZM138.124 39.5488V77H133.147V39.5488H138.124ZM154.549 39.5488V77H149.572V39.5488H154.549ZM188.874 66.0312H170.973V71.998H188.874V77H170.973C170.296 77 169.653 76.873 169.044 76.6191C168.434 76.3483 167.901 75.9928 167.444 75.5527C167.004 75.0957 166.648 74.5625 166.378 73.9531C166.124 73.3438 165.997 72.6921 165.997 71.998V54.9609C165.997 54.2669 166.124 53.6152 166.378 53.0059C166.648 52.3965 167.004 51.8717 167.444 51.4316C167.901 50.9746 168.434 50.6191 169.044 50.3652C169.653 50.0944 170.296 49.959 170.973 49.959H183.872C184.566 49.959 185.217 50.0944 185.827 50.3652C186.436 50.6191 186.961 50.9746 187.401 51.4316C187.858 51.8717 188.214 52.3965 188.467 53.0059C188.738 53.6152 188.874 54.2669 188.874 54.9609V66.0312ZM170.973 54.9609V61.0293H183.872V54.9609H170.973ZM224.265 77H219.263V54.9609H205.324V77H200.347V49.959H205.324V54.7324C205.358 54.0723 205.51 53.4544 205.781 52.8789C206.052 52.2865 206.407 51.7786 206.847 51.3555C207.304 50.9154 207.829 50.5768 208.421 50.3398C209.014 50.0859 209.649 49.959 210.326 49.959H219.263C219.957 49.959 220.609 50.0944 221.218 50.3652C221.828 50.6191 222.352 50.9746 222.792 51.4316C223.25 51.8717 223.605 52.3965 223.859 53.0059C224.13 53.6152 224.265 54.2669 224.265 54.9609V77ZM259.631 77H254.629V54.9609H240.69V77H235.713V49.959H240.69V54.7324C240.724 54.0723 240.876 53.4544 241.147 52.8789C241.418 52.2865 241.773 51.7786 242.213 51.3555C242.67 50.9154 243.195 50.5768 243.787 50.3398C244.38 50.0859 245.015 49.959 245.692 49.959H254.629C255.323 49.959 255.975 50.0944 256.584 50.3652C257.194 50.6191 257.718 50.9746 258.159 51.4316C258.616 51.8717 258.971 52.3965 259.225 53.0059C259.496 53.6152 259.631 54.2669 259.631 54.9609V77ZM276.335 49.959V77H271.333V49.959H276.335ZM271.079 39.5488H276.589V44.7539H271.079V39.5488ZM288.063 65.1934C288.063 64.4993 288.19 63.8561 288.444 63.2637C288.714 62.6543 289.07 62.1211 289.51 61.6641C289.967 61.207 290.5 60.8516 291.11 60.5977C291.719 60.3268 292.362 60.1914 293.039 60.1914H305.938V54.9609H289.611V49.959H305.938C306.632 49.959 307.283 50.0944 307.893 50.3652C308.502 50.6191 309.027 50.9746 309.467 51.4316C309.924 51.8717 310.279 52.3965 310.533 53.0059C310.804 53.6152 310.94 54.2669 310.94 54.9609V77H305.938V72.4297C305.887 73.056 305.718 73.6484 305.43 74.207C305.142 74.7656 304.77 75.2565 304.313 75.6797C303.873 76.0859 303.365 76.4076 302.789 76.6445C302.214 76.8815 301.604 77 300.961 77H293.039C292.362 77 291.719 76.873 291.11 76.6191C290.5 76.3483 289.967 75.9928 289.51 75.5527C289.07 75.0957 288.714 74.5625 288.444 73.9531C288.19 73.3438 288.063 72.6921 288.063 71.998V65.1934ZM293.039 71.998H305.938V65.1934H293.039V71.998ZM327.39 54.9609V77H322.413V49.959H327.39V54.7324C327.424 54.0723 327.576 53.4544 327.847 52.8789C328.118 52.2865 328.473 51.7786 328.913 51.3555C329.37 50.9154 329.895 50.5768 330.487 50.3398C331.08 50.0859 331.715 49.959 332.392 49.959H337.698C338.392 49.959 339.036 50.0944 339.628 50.3652C340.237 50.6191 340.771 50.9746 341.228 51.4316C341.685 51.8717 342.04 52.3965 342.294 53.0059C342.565 53.6152 342.7 54.2669 342.7 54.9609V59.5312H337.698V54.9609H327.39Z" fill="#0E74EC"/>
<g filter="url(#filter2_f_28_12)">
<path d="M121.42 49.959V77H116.418V49.959H121.42ZM116.164 39.5488H121.674V44.7539H116.164V39.5488ZM138.124 39.5488V77H133.147V39.5488H138.124ZM154.549 39.5488V77H149.572V39.5488H154.549ZM188.874 66.0312H170.973V71.998H188.874V77H170.973C170.296 77 169.653 76.873 169.044 76.6191C168.434 76.3483 167.901 75.9928 167.444 75.5527C167.004 75.0957 166.648 74.5625 166.378 73.9531C166.124 73.3438 165.997 72.6921 165.997 71.998V54.9609C165.997 54.2669 166.124 53.6152 166.378 53.0059C166.648 52.3965 167.004 51.8717 167.444 51.4316C167.901 50.9746 168.434 50.6191 169.044 50.3652C169.653 50.0944 170.296 49.959 170.973 49.959H183.872C184.566 49.959 185.217 50.0944 185.827 50.3652C186.436 50.6191 186.961 50.9746 187.401 51.4316C187.858 51.8717 188.214 52.3965 188.467 53.0059C188.738 53.6152 188.874 54.2669 188.874 54.9609V66.0312ZM170.973 54.9609V61.0293H183.872V54.9609H170.973ZM224.265 77H219.263V54.9609H205.324V77H200.347V49.959H205.324V54.7324C205.358 54.0723 205.51 53.4544 205.781 52.8789C206.052 52.2865 206.407 51.7786 206.847 51.3555C207.304 50.9154 207.829 50.5768 208.421 50.3398C209.014 50.0859 209.649 49.959 210.326 49.959H219.263C219.957 49.959 220.609 50.0944 221.218 50.3652C221.828 50.6191 222.352 50.9746 222.792 51.4316C223.25 51.8717 223.605 52.3965 223.859 53.0059C224.13 53.6152 224.265 54.2669 224.265 54.9609V77ZM259.631 77H254.629V54.9609H240.69V77H235.713V49.959H240.69V54.7324C240.724 54.0723 240.876 53.4544 241.147 52.8789C241.418 52.2865 241.773 51.7786 242.213 51.3555C242.67 50.9154 243.195 50.5768 243.787 50.3398C244.38 50.0859 245.015 49.959 245.692 49.959H254.629C255.323 49.959 255.975 50.0944 256.584 50.3652C257.194 50.6191 257.718 50.9746 258.159 51.4316C258.616 51.8717 258.971 52.3965 259.225 53.0059C259.496 53.6152 259.631 54.2669 259.631 54.9609V77ZM276.335 49.959V77H271.333V49.959H276.335ZM271.079 39.5488H276.589V44.7539H271.079V39.5488ZM288.063 65.1934C288.063 64.4993 288.19 63.8561 288.444 63.2637C288.714 62.6543 289.07 62.1211 289.51 61.6641C289.967 61.207 290.5 60.8516 291.11 60.5977C291.719 60.3268 292.362 60.1914 293.039 60.1914H305.938V54.9609H289.611V49.959H305.938C306.632 49.959 307.283 50.0944 307.893 50.3652C308.502 50.6191 309.027 50.9746 309.467 51.4316C309.924 51.8717 310.279 52.3965 310.533 53.0059C310.804 53.6152 310.94 54.2669 310.94 54.9609V77H305.938V72.4297C305.887 73.056 305.718 73.6484 305.43 74.207C305.142 74.7656 304.77 75.2565 304.313 75.6797C303.873 76.0859 303.365 76.4076 302.789 76.6445C302.214 76.8815 301.604 77 300.961 77H293.039C292.362 77 291.719 76.873 291.11 76.6191C290.5 76.3483 289.967 75.9928 289.51 75.5527C289.07 75.0957 288.714 74.5625 288.444 73.9531C288.19 73.3438 288.063 72.6921 288.063 71.998V65.1934ZM293.039 71.998H305.938V65.1934H293.039V71.998ZM327.39 54.9609V77H322.413V49.959H327.39V54.7324C327.424 54.0723 327.576 53.4544 327.847 52.8789C328.118 52.2865 328.473 51.7786 328.913 51.3555C329.37 50.9154 329.895 50.5768 330.487 50.3398C331.08 50.0859 331.715 49.959 332.392 49.959H337.698C338.392 49.959 339.036 50.0944 339.628 50.3652C340.237 50.6191 340.771 50.9746 341.228 51.4316C341.685 51.8717 342.04 52.3965 342.294 53.0059C342.565 53.6152 342.7 54.2669 342.7 54.9609V59.5312H337.698V54.9609H327.39Z" fill="#0E74EC"/>
</g>
<defs>
<filter id="filter0_i_28_12" x="10.1293" y="0.313477" width="93.7414" height="108.191" filterUnits="userSpaceOnUse" color-interpolation-filters="sRGB">
<feFlood flood-opacity="0" result="BackgroundImageFix"/>
<feBlend mode="normal" in="SourceGraphic" in2="BackgroundImageFix" result="shape"/>
<feColorMatrix in="SourceAlpha" type="matrix" values="0 0 0 0 0 0 0 0 0 0 0 0 0 0 0 0 0 0 127 0" result="hardAlpha"/>
<feOffset dy="5"/>
<feGaussianBlur stdDeviation="1.5"/>
<feComposite in2="hardAlpha" operator="arithmetic" k2="-1" k3="1"/>
<feColorMatrix type="matrix" values="0 0 0 0 0.44 0 0 0 0 0 0 0 0 0 1 0 0 0 0.25 0"/>
<feBlend mode="normal" in2="shape" result="effect1_innerShadow_28_12"/>
</filter>
<filter id="filter1_f_28_12" x="0" y="13.2959" width="114.2" height="80.9041" filterUnits="userSpaceOnUse" color-interpolation-filters="sRGB">
<feFlood flood-opacity="0" result="BackgroundImageFix"/>
<feBlend mode="normal" in="SourceGraphic" in2="BackgroundImageFix" result="shape"/>
<feGaussianBlur stdDeviation="5" result="effect1_foregroundBlur_28_12"/>
</filter>
<filter id="filter2_f_28_12" x="111.164" y="34.5488" width="236.536" height="47.4512" filterUnits="userSpaceOnUse" color-interpolation-filters="sRGB">
<feFlood flood-opacity="0" result="BackgroundImageFix"/>
<feBlend mode="normal" in="SourceGraphic" in2="BackgroundImageFix" result="shape"/>
<feGaussianBlur stdDeviation="2.5" result="effect1_foregroundBlur_28_12"/>
</filter>
</defs>
</svg>
